<?xml version="1.0" standalone="no"?>
<!DOCTYPE svg PUBLIC "-//W3C//DTD SVG 20010904//EN"
 "http://www.w3.org/TR/2001/REC-SVG-20010904/DTD/svg10.dtd">
<svg version="1.0" xmlns="http://www.w3.org/2000/svg"
 width="500.000000pt" height="500.000000pt" viewBox="0 0 500.000000 500.000000"
 preserveAspectRatio="xMidYMid meet">
<metadata>
Created by potrace 1.14, written by Peter Selinger 2001-2017
</metadata>
<g transform="translate(0.000000,500.000000) scale(0.100000,-0.100000)"
fill="#000000" stroke="none">
<path d="M640 2505 l0 -815 200 0 200 0 2 351 3 350 265 -350 265 -350 249 0
c236 -1 248 0 234 17 -8 9 -151 190 -318 402 -166 212 -306 390 -311 396 -6 7
100 149 301 403 170 216 310 397 310 402 0 6 -92 8 -232 7 l-232 -3 -265 -350
-266 -350 -3 353 -2 352 -200 0 -200 0 0 -815z"/>
<path d="M2250 2505 l0 -815 200 0 200 0 2 492 3 492 324 -492 325 -492 203 0
203 0 -2 813 -3 812 -200 0 -200 0 -5 -490 -5 -490 -324 493 -324 492 -198 0
-199 0 0 -815z"/>
<path d="M4070 2084 c-147 -64 -177 -261 -55 -362 93 -76 263 -66 342 19 97
106 55 287 -79 343 -48 20 -162 20 -208 0z"/>
</g>
</svg>
